<svg width="46" height="47" viewBox="0 0 46 47" fill="none" xmlns="http://www.w3.org/2000/svg">
<rect x="2.4" y="16.292" width="41.2" height="17.2" rx="8.6" stroke="#83A5FF" stroke-width="0.8"/>
<path d="M12.5496 10.988C12.0536 10.988 11.6856 10.852 11.4456 10.58C11.2056 10.308 11.0856 9.94796 11.0856 9.49996V2.01196H11.9616V9.39196C11.9616 9.65596 12.0176 9.85596 12.1296 9.99196C12.2416 10.128 12.4256 10.196 12.6816 10.196C12.8016 10.196 12.9176 10.18 13.0296 10.148C13.1416 10.108 13.2296 10.068 13.2936 10.028L13.5336 10.688C13.4216 10.784 13.2736 10.856 13.0896 10.904C12.9136 10.96 12.7336 10.988 12.5496 10.988Z" fill="#83A5FF"/>
<path d="M16.8068 4.81996C17.6308 4.81996 18.2788 5.08796 18.7508 5.62396C19.2308 6.15196 19.4708 6.87196 19.4708 7.78396C19.4708 8.39196 19.3508 8.93996 19.1108 9.42796C18.8788 9.90796 18.5508 10.288 18.1268 10.568C17.7028 10.848 17.2068 10.988 16.6388 10.988C15.7988 10.988 15.1388 10.724 14.6588 10.196C14.1788 9.65996 13.9388 8.93196 13.9388 8.01196C13.9388 7.40396 14.0548 6.85996 14.2868 6.37996C14.5268 5.89996 14.8628 5.51996 15.2948 5.23996C15.7268 4.95996 16.2308 4.81996 16.8068 4.81996ZM16.6388 10.184C17.2148 10.184 17.6788 9.96396 18.0308 9.52396C18.3828 9.08396 18.5588 8.50396 18.5588 7.78396C18.5588 7.08796 18.4028 6.55196 18.0908 6.17596C17.7868 5.79996 17.3628 5.61196 16.8188 5.61196C16.4188 5.61196 16.0708 5.71596 15.7748 5.92396C15.4868 6.12396 15.2588 6.40396 15.0908 6.76396C14.9308 7.12396 14.8508 7.53996 14.8508 8.01196C14.8508 8.71596 15.0068 9.25596 15.3188 9.63196C15.6388 9.99996 16.0788 10.184 16.6388 10.184Z" fill="#83A5FF"/>
<path d="M23.5434 10.988C22.6714 10.988 21.9874 10.728 21.4914 10.208C20.9954 9.67996 20.7474 8.94796 20.7474 8.01196C20.7474 7.37996 20.8714 6.82396 21.1194 6.34396C21.3674 5.86396 21.7114 5.49196 22.1514 5.22796C22.5914 4.95596 23.1034 4.81996 23.6874 4.81996C24.6474 4.81996 25.3514 5.20396 25.7994 5.97196L25.1274 6.47596C24.8074 5.90796 24.3194 5.62396 23.6634 5.62396C23.0634 5.62396 22.5794 5.84396 22.2114 6.28396C21.8514 6.71596 21.6714 7.29196 21.6714 8.01196C21.6714 8.71596 21.8354 9.25196 22.1634 9.61996C22.4914 9.98796 22.9634 10.172 23.5794 10.172C23.9074 10.172 24.2074 10.104 24.4794 9.96796C24.7514 9.83196 24.9754 9.61596 25.1514 9.31996L25.7994 9.82396C25.3194 10.6 24.5674 10.988 23.5434 10.988Z" fill="#83A5FF"/>
<path d="M31.7366 4.92796V10.892H30.8486L30.8846 9.48796C30.6606 9.95196 30.3606 10.32 29.9846 10.592C29.6086 10.856 29.1806 10.988 28.7006 10.988C28.1966 10.988 27.7726 10.872 27.4286 10.64C27.0846 10.4 26.8206 10.072 26.6366 9.65596C26.4526 9.23196 26.3606 8.74396 26.3606 8.19196C26.3606 7.52796 26.4806 6.94396 26.7206 6.43996C26.9606 5.92796 27.2966 5.53196 27.7286 5.25196C28.1606 4.96396 28.6606 4.81996 29.2286 4.81996C29.6286 4.81996 29.9806 4.91196 30.2846 5.09596C30.5886 5.27996 30.8126 5.51596 30.9566 5.80396L31.0766 4.92796H31.7366ZM29.2526 5.61196C28.6526 5.61196 28.1726 5.83996 27.8126 6.29596C27.4526 6.75196 27.2726 7.35996 27.2726 8.11996C27.2726 8.76796 27.4086 9.27596 27.6806 9.64396C27.9606 10.004 28.3406 10.184 28.8206 10.184C29.2126 10.184 29.5646 10.068 29.8766 9.83596C30.1886 9.60396 30.4326 9.28396 30.6086 8.87596C30.7846 8.46796 30.8726 7.99996 30.8726 7.47196C30.8726 6.89596 30.7286 6.44396 30.4406 6.11596C30.1526 5.77996 29.7566 5.61196 29.2526 5.61196Z" fill="#83A5FF"/>
<path d="M35.0027 10.988C34.5067 10.988 34.1387 10.852 33.8987 10.58C33.6587 10.308 33.5387 9.94796 33.5387 9.49996V2.01196H34.4147V9.39196C34.4147 9.65596 34.4707 9.85596 34.5827 9.99196C34.6947 10.128 34.8787 10.196 35.1347 10.196C35.2547 10.196 35.3707 10.18 35.4827 10.148C35.5947 10.108 35.6827 10.068 35.7467 10.028L35.9867 10.688C35.8747 10.784 35.7267 10.856 35.5427 10.904C35.3667 10.96 35.1867 10.988 35.0027 10.988Z" fill="#83A5FF"/>
<path d="M13.3571 27.988C12.6131 27.988 12.0371 27.836 11.6291 27.532C11.2211 27.22 10.9851 26.78 10.9211 26.212L11.6891 26.032C11.7451 26.456 11.9051 26.768 12.1691 26.968C12.4411 27.168 12.8371 27.268 13.3571 27.268C13.7971 27.268 14.1291 27.18 14.3531 27.004C14.5851 26.82 14.7011 26.584 14.7011 26.296C14.7011 26.024 14.5851 25.824 14.3531 25.696C14.1211 25.56 13.7571 25.444 13.2611 25.348C12.8451 25.268 12.4891 25.168 12.1931 25.048C11.8971 24.92 11.6691 24.744 11.5091 24.52C11.3491 24.296 11.2691 23.996 11.2691 23.62C11.2691 23.284 11.3611 22.98 11.5451 22.708C11.7291 22.436 11.9811 22.224 12.3011 22.072C12.6291 21.912 12.9971 21.832 13.4051 21.832C13.9651 21.832 14.4211 21.968 14.7731 22.24C15.1331 22.504 15.3531 22.872 15.4331 23.344L14.6891 23.536C14.5691 22.88 14.1371 22.552 13.3931 22.552C13.0091 22.552 12.7011 22.648 12.4691 22.84C12.2451 23.024 12.1331 23.276 12.1331 23.596C12.1331 23.86 12.2331 24.072 12.4331 24.232C12.6331 24.384 12.9931 24.516 13.5131 24.628C13.9371 24.716 14.3011 24.82 14.6051 24.94C14.9091 25.052 15.1411 25.208 15.3011 25.408C15.4691 25.608 15.5571 25.884 15.5651 26.236C15.5651 26.572 15.4731 26.872 15.2891 27.136C15.1051 27.4 14.8451 27.608 14.5091 27.76C14.1811 27.912 13.7971 27.988 13.3571 27.988Z" fill="#83A5FF"/>
<path d="M18.8549 30.412C18.5109 30.412 18.1589 30.376 17.7989 30.304C17.4469 30.24 17.1469 30.136 16.8989 29.992L17.1389 29.212C17.3949 29.34 17.6749 29.436 17.9789 29.5C18.2829 29.572 18.5829 29.608 18.8789 29.608C19.6469 29.608 20.1909 29.42 20.5109 29.044C20.8389 28.668 21.0109 28.06 21.0269 27.22L21.0629 25.756C20.8389 26.484 20.5189 27.02 20.1029 27.364C19.6869 27.708 19.2069 27.88 18.6629 27.88C18.0549 27.88 17.5909 27.672 17.2709 27.256C16.9509 26.84 16.7909 26.264 16.7909 25.528L16.8269 21.928H17.7029L17.6669 25.42C17.6589 25.94 17.7509 26.344 17.9429 26.632C18.1349 26.912 18.4429 27.052 18.8669 27.052C19.2909 27.052 19.6629 26.892 19.9829 26.572C20.3029 26.252 20.5549 25.72 20.7389 24.976C20.9229 24.224 21.0149 23.208 21.0149 21.928H21.8549V27.088C21.8549 29.304 20.8549 30.412 18.8549 30.412Z" fill="#83A5FF"/>
<path d="M23.6598 27.892V21.928H24.5478L24.4758 23.968C24.6758 23.272 24.9838 22.74 25.3998 22.372C25.8238 22.004 26.3198 21.82 26.8878 21.82C27.4958 21.82 27.9638 22.032 28.2918 22.456C28.6198 22.88 28.7838 23.492 28.7838 24.292L28.7598 27.892H27.8838L27.9078 24.4C27.9078 23.816 27.8078 23.376 27.6078 23.08C27.4158 22.784 27.1038 22.636 26.6718 22.636C26.2638 22.636 25.8958 22.8 25.5678 23.128C25.2478 23.448 24.9918 23.992 24.7998 24.76C24.6158 25.528 24.5238 26.572 24.5238 27.892H23.6598Z" fill="#83A5FF"/>
<path d="M33.0473 27.988C32.1753 27.988 31.4913 27.728 30.9953 27.208C30.4993 26.68 30.2513 25.948 30.2513 25.012C30.2513 24.38 30.3753 23.824 30.6233 23.344C30.8713 22.864 31.2153 22.492 31.6553 22.228C32.0953 21.956 32.6073 21.82 33.1913 21.82C34.1513 21.82 34.8553 22.204 35.3033 22.972L34.6313 23.476C34.3113 22.908 33.8233 22.624 33.1673 22.624C32.5673 22.624 32.0833 22.844 31.7153 23.284C31.3553 23.716 31.1753 24.292 31.1753 25.012C31.1753 25.716 31.3393 26.252 31.6673 26.62C31.9953 26.988 32.4673 27.172 33.0833 27.172C33.4113 27.172 33.7113 27.104 33.9833 26.968C34.2553 26.832 34.4793 26.616 34.6553 26.32L35.3033 26.824C34.8233 27.6 34.0713 27.988 33.0473 27.988Z" fill="#83A5FF"/>
<path d="M12.197 44.988C11.453 44.988 10.877 44.836 10.469 44.532C10.061 44.22 9.82499 43.78 9.76099 43.212L10.529 43.032C10.585 43.456 10.745 43.768 11.009 43.968C11.281 44.168 11.677 44.268 12.197 44.268C12.637 44.268 12.969 44.18 13.193 44.004C13.425 43.82 13.541 43.584 13.541 43.296C13.541 43.024 13.425 42.824 13.193 42.696C12.961 42.56 12.597 42.444 12.101 42.348C11.685 42.268 11.329 42.168 11.033 42.048C10.737 41.92 10.509 41.744 10.349 41.52C10.189 41.296 10.109 40.996 10.109 40.62C10.109 40.284 10.201 39.98 10.385 39.708C10.569 39.436 10.821 39.224 11.141 39.072C11.469 38.912 11.837 38.832 12.245 38.832C12.805 38.832 13.261 38.968 13.613 39.24C13.973 39.504 14.193 39.872 14.273 40.344L13.529 40.536C13.409 39.88 12.977 39.552 12.233 39.552C11.849 39.552 11.541 39.648 11.309 39.84C11.085 40.024 10.973 40.276 10.973 40.596C10.973 40.86 11.073 41.072 11.273 41.232C11.473 41.384 11.833 41.516 12.353 41.628C12.777 41.716 13.141 41.82 13.445 41.94C13.749 42.052 13.981 42.208 14.141 42.408C14.309 42.608 14.397 42.884 14.405 43.236C14.405 43.572 14.313 43.872 14.129 44.136C13.945 44.4 13.685 44.608 13.349 44.76C13.021 44.912 12.637 44.988 12.197 44.988Z" fill="#83A5FF"/>
<path d="M17.8536 44.988C17.1736 44.988 16.6616 44.808 16.3176 44.448C15.9736 44.08 15.8056 43.592 15.8136 42.984L15.8496 39.672H14.7936V38.928H15.8616L15.8736 37.68H16.7496L16.7376 38.928H18.8136V39.672H16.7256L16.6896 42.924C16.6896 43.308 16.7856 43.616 16.9776 43.848C17.1776 44.08 17.4856 44.196 17.9016 44.196C18.0856 44.196 18.2576 44.176 18.4176 44.136C18.5776 44.088 18.7456 43.996 18.9216 43.86L19.2096 44.556C19.0336 44.708 18.8256 44.82 18.5856 44.892C18.3456 44.956 18.1016 44.988 17.8536 44.988Z" fill="#83A5FF"/>
<path d="M24.9984 38.928V44.892H24.1104L24.1464 43.488C23.9224 43.952 23.6224 44.32 23.2464 44.592C22.8704 44.856 22.4424 44.988 21.9624 44.988C21.4584 44.988 21.0344 44.872 20.6904 44.64C20.3464 44.4 20.0824 44.072 19.8984 43.656C19.7144 43.232 19.6224 42.744 19.6224 42.192C19.6224 41.528 19.7424 40.944 19.9824 40.44C20.2224 39.928 20.5584 39.532 20.9904 39.252C21.4224 38.964 21.9224 38.82 22.4904 38.82C22.8904 38.82 23.2424 38.912 23.5464 39.096C23.8504 39.28 24.0744 39.516 24.2184 39.804L24.3384 38.928H24.9984ZM22.5144 39.612C21.9144 39.612 21.4344 39.84 21.0744 40.296C20.7144 40.752 20.5344 41.36 20.5344 42.12C20.5344 42.768 20.6704 43.276 20.9424 43.644C21.2224 44.004 21.6024 44.184 22.0824 44.184C22.4744 44.184 22.8264 44.068 23.1384 43.836C23.4504 43.604 23.6944 43.284 23.8704 42.876C24.0464 42.468 24.1344 42 24.1344 41.472C24.1344 40.896 23.9904 40.444 23.7024 40.116C23.4144 39.78 23.0184 39.612 22.5144 39.612Z" fill="#83A5FF"/>
<path d="M29.0684 44.988C28.3884 44.988 27.8764 44.808 27.5324 44.448C27.1884 44.08 27.0204 43.592 27.0284 42.984L27.0644 39.672H26.0084V38.928H27.0764L27.0884 37.68H27.9644L27.9524 38.928H30.0284V39.672H27.9404L27.9044 42.924C27.9044 43.308 28.0004 43.616 28.1924 43.848C28.3924 44.08 28.7004 44.196 29.1164 44.196C29.3004 44.196 29.4724 44.176 29.6324 44.136C29.7924 44.088 29.9604 43.996 30.1364 43.86L30.4244 44.556C30.2484 44.708 30.0404 44.82 29.8004 44.892C29.5604 44.956 29.3164 44.988 29.0684 44.988Z" fill="#83A5FF"/>
<path d="M33.7892 44.988C32.8692 44.988 32.1452 44.724 31.6172 44.196C31.0972 43.668 30.8372 42.932 30.8372 41.988C30.8372 41.372 30.9612 40.824 31.2092 40.344C31.4572 39.864 31.7932 39.492 32.2172 39.228C32.6492 38.956 33.1372 38.82 33.6812 38.82C34.4972 38.82 35.1252 39.104 35.5652 39.672C36.0132 40.24 36.1732 41.088 36.0452 42.216H31.7372C31.7612 42.856 31.9532 43.344 32.3132 43.68C32.6812 44.016 33.1932 44.184 33.8492 44.184C34.1692 44.184 34.4772 44.116 34.7732 43.98C35.0692 43.836 35.3212 43.616 35.5292 43.32L36.0812 43.824C35.5452 44.6 34.7812 44.988 33.7892 44.988ZM33.6932 39.528C33.3252 39.528 33.0012 39.616 32.7212 39.792C32.4492 39.968 32.2292 40.208 32.0612 40.512C31.8932 40.808 31.7892 41.14 31.7492 41.508H35.2772C35.3092 40.812 35.1732 40.308 34.8692 39.996C34.5652 39.684 34.1732 39.528 33.6932 39.528Z" fill="#83A5FF"/>
</svg>
